<?xml version="1.0" standalone="no"?>
<!DOCTYPE svg PUBLIC "-//W3C//DTD SVG 1.1//EN" "http://www.w3.org/Graphics/SVG/1.1/DTD/svg11.dtd" >
<svg xmlns="http://www.w3.org/2000/svg" xmlns:svg="http://www.w3.org/2000/svg" xmlns:xlink="http://www.w3.org/1999/xlink" viewBox="0 0 1024 1024"><path d="M408.32 695.06Q421.63 705.83 467.18 667.14Q494.69 618 509.23 577.67Q549.95 554.91 524.46 528.16L525.49 510.45Q513.53 527.73 511.89 539.22Q466.88 504.21 457.94 517.45Q443.53 505.95 436.49 521.87Q429.06 505.32 414.89 472.78Q410.42 499.36 425.38 466.76Q439.56 466.66 450.75 445.61L438.04 436.14L676.62 456.56Q844.95 457.82 878.43 468.76Q944.45 455.04 953.05 462.35Q960.78 485.86 943.02 492.92Q928.35 492.15 954.59 507.77Q943.1 515.54 938.08 505.52Q910.57 516.15 899.59 539.17Q882.23 505.69 855.96 524.32Q827.77 529.45 756.07 516.64L608.55 509.48L631.61 532.97Q613.86 563.7 593.52 549.7Q600.41 557.77 593.53 582.43Q598.86 582.74 670.54 593.93Q695.57 588.87 768.65 559.8L950.1 591.44L924.53 605.78Q945.39 607.44 936.44 602.95Q946.68 638.71 950.48 690.38Q943.13 710.35 924.63 842.99Q903.61 932.48 890.01 960.98Q865.71 935.78 862.9 969.36Q836.21 958.07 786.48 898.3Q752.64 906.24 749.93 879.05Q736.42 882.75 733.51 887.7Q733.3 872.7 739.41 876.87Q751.6 856.68 745.87 838.46Q770.11 824.12 751.56 836.09Q757.68 848.34 780.25 841.91Q801.52 813.65 784.91 851.33Q781.97 833.53 810.27 843.3L829.8 840.38L841.22 781.13Q837.33 795.06 866.23 749.86Q872.08 704.27 844.99 721.69Q862.4 658.09 849.33 651.76Q853.95 637.81 852.47 661.49Q865.89 643.27 855.53 635.86Q821.52 649.46 842.11 658.22Q803.74 641.62 820.77 639.76Q792.29 637.07 782.36 675.99Q792.71 738.7 724.03 802.82Q692.08 904.85 630 883.03Q658.67 894.73 642.16 884.32Q610.32 882.03 633.65 881.05Q609.24 872.94 607.8 877.9Q614.88 884.47 613.17 868Q610.84 839.65 602.14 822Q636.32 818.64 659.47 797.81Q657.52 753.53 709.02 713.35Q731.97 654.82 717.11 671.69Q720.66 672.18 722.74 670.71Q727.79 637.02 696.8 635.94Q709.11 631.96 685.46 657.93Q700.89 656.58 700.61 637.04Q705.68 653.08 681.49 662.96Q694.58 639.25 672.34 666.43Q682.3 651.69 671.56 676.13Q665.45 670.14 604.96 755.23Q585.19 794.19 541.34 832.14Q519.6 833.65 529.51 850.44Q516.68 835.35 499.57 832.27Q504.69 830.02 512.49 837.93Q502.63 818.74 473.02 801.42Q478.63 795.37 467.16 781.08Q467.78 808.76 492.14 760.69Q524.69 761.39 534.21 741.56Q544.52 731.65 570.91 682.91Q576.01 668.25 595.18 641.81Q581.55 656.08 565.17 661.8Q594.61 639.32 589.63 632.94Q573.45 646.73 575.77 668.78Q543.37 672.14 532.74 696.28Q480.39 718.93 471.01 752.42Q462.56 748.5 454.21 755.83Q447.81 762.66 424.03 749.53Q422.25 762.33 424.6 739.83Q415.17 750.29 414.27 739.37Q385.6 714.13 383.08 736.18Q404.62 716.79 414.49 693.57ZM486.82 373.42Q496.54 386.2 489.22 345.15Q500.04 293.13 491.51 228.77Q477.36 177.83 517.17 142.97Q484.19 103.34 509.35 111.77Q495.44 89.6 535.74 112.37Q555.41 92.33 600.36 106.76Q637.39 74.72 709.14 109.57Q753.51 97.77 764.2 74.6Q856.48 109.63 879.27 103.09Q892.8 117.64 916.59 177.46Q889.95 188.79 900.31 203.13Q913 260.89 882.24 319.66Q883.55 411.53 878.98 417.56Q875.87 425.62 872.14 419.95Q829.01 417.36 818.86 400.81Q765.03 411.85 669.4 423.87Q527.71 424.03 504.55 405.13Q501.26 424.45 476.22 373.53Q485.94 373.29 490.36 389.33ZM69.92 593.26Q72.01 601.35 87.67 568.05Q109.66 541.01 125.86 523.2Q148.06 449.56 153.94 374.68Q180.86 321.93 190 312.13Q173 298.77 187.36 325.05Q168.51 315.61 151.85 297.04Q143.18 300.2 133.98 307Q130.7 292.97 122.39 306.08Q114.43 309.42 76.58 275.32Q89.39 283.94 98.65 296.35Q70.06 283.82 93.33 252.75Q80.17 249.71 83.86 238L82.29 249.17L139.87 249.32Q198.57 226.53 202.02 211.87Q214.51 214.63 226.49 231.12Q218.31 194.5 206.81 190.52Q239.5 157.33 234.92 142.24Q212.43 130.86 212.56 92.98Q222.14 71.32 245.45 97.42Q244.78 78.65 279.65 64.79Q281.01 85.71 265.96 59.61Q272.39 66.6 304.31 79.02Q310.34 111 302.86 111.95Q299.49 131.41 294.11 117.29Q288.98 144.01 308.21 178.86Q293.74 170.2 296.48 189.53Q305.24 227.39 278.85 224.11Q297.8 207.41 326.67 210.16Q336.56 209.23 351.77 215.41Q408 235.58 390.38 222.3Q431.06 241.86 411.67 259.17Q437.98 276.57 434.43 251.96Q422.49 250.92 432.28 283.73Q423.2 295.39 421.41 300.64Q408.12 321.06 342.33 290.01L302.72 324.33L364.91 354.13Q382.66 415.13 412.64 452.09Q389.49 436.17 416.89 443.73Q418.25 457.33 374.92 490.75Q364.93 466.18 379.48 484.13Q342.42 462.13 348.87 485.68Q329.9 459.86 330.35 452.11L297.97 417.34L270.6 660.07Q276.4 807.9 267.86 888.65Q291.36 937.62 273.03 956.34Q289.8 949.13 255.07 945.59Q269.95 948.62 242.37 955.31Q251.88 951.79 242.6 938.94Q237.16 946.8 244.59 963.61Q216.46 927.62 205.19 922.37Q216.03 872.56 215.87 684.49V448.69L200.76 519.91Q149.28 607.67 122.09 623.81Q123.51 627.69 104.3 660.07Q90.85 643.74 108.39 636.43Q77.77 632.38 79.24 629.36Q60.78 608.11 67.26 594.56ZM575.5 341.53L831.65 358.4L827.74 329.95Q801.38 333.79 827.52 313.27Q829.61 310.48 832.58 315.75Q838.79 318.83 832.13 306.03Q817.4 306.01 800.23 315.63Q806.05 289.17 792.34 290.42Q766.41 284.23 745.62 294.76Q704.83 310.95 663.06 278.79L549.24 293.01ZM817.08 204.99L808.67 174.06L702.72 182.87L583.12 159.33L586.45 242.34Z" fill="black"></path></svg>