<?xml version="1.0" standalone="no"?>
<!DOCTYPE svg PUBLIC "-//W3C//DTD SVG 1.1//EN" "http://www.w3.org/Graphics/SVG/1.1/DTD/svg11.dtd" >
<svg xmlns="http://www.w3.org/2000/svg" xmlns:svg="http://www.w3.org/2000/svg" xmlns:xlink="http://www.w3.org/1999/xlink" viewBox="0 0 1024 1024"><path d="M406.5 702.5Q414.5 690.5 449.5 654.5Q483.5 618.5 512.0 578.0Q540.5 537.5 542.5 523.5L529.5 521.5Q515.5 519.5 494.5 519.5Q465.5 519.5 453.0 517.0Q440.5 514.5 432.5 507.5Q422.5 496.5 422.0 491.0Q421.5 485.5 421.5 484.5Q421.5 475.5 431.5 462.5L441.5 447.5L684.5 451.5Q841.5 454.5 889.0 457.5Q936.5 460.5 936.5 465.5Q945.5 477.5 945.5 491.5Q945.5 492.5 945.0 500.0Q944.5 507.5 935.5 516.5Q929.5 523.5 906.0 524.5Q882.5 525.5 840.5 525.5Q812.5 525.5 774.5 525.5L627.5 523.5L618.5 548.5Q612.5 557.5 610.0 566.5Q607.5 575.5 607.5 577.5Q609.5 580.5 656.0 580.5Q702.5 580.5 773.5 579.5L936.5 577.5L944.5 595.5Q947.5 604.5 947.5 621.5Q947.5 640.5 942.0 683.5Q936.5 726.5 913.5 831.5Q891.5 933.5 874.5 944.5Q857.5 955.5 848.5 956.5Q822.5 955.5 782.5 915.5Q756.5 892.5 751.5 884.0Q746.5 875.5 746.5 869.5Q746.5 866.5 747.5 863.5Q749.5 856.5 752.5 849.0Q755.5 841.5 758.5 838.5Q766.5 830.5 779.5 830.5Q782.5 830.5 792.0 831.5Q801.5 832.5 816.5 843.5L832.5 856.5L841.5 800.5Q845.5 775.5 850.0 748.5Q854.5 721.5 857.5 705.5Q865.5 673.5 865.5 661.5Q865.5 657.5 864.0 653.5Q862.5 649.5 844.5 649.5Q839.5 649.5 834.5 649.5Q816.5 649.5 808.5 652.0Q800.5 654.5 798.5 660.5Q776.5 721.5 724.5 803.5Q672.5 885.5 645.5 899.5Q641.5 900.5 637.5 900.5Q628.5 900.5 615.5 892.0Q602.5 883.5 602.5 868.5Q602.5 866.5 602.5 864.5Q602.5 855.5 611.5 839.0Q620.5 822.5 647.5 789.5Q674.5 753.5 696.0 713.0Q717.5 672.5 717.5 656.5Q718.5 654.5 718.5 652.5Q718.5 646.5 714.5 645.0Q710.5 643.5 700.5 643.5Q697.5 643.5 692.5 643.5Q689.5 643.5 686.5 643.5Q676.5 643.5 671.0 646.5Q665.5 649.5 661.5 661.5Q648.5 688.5 612.0 742.0Q575.5 795.5 549.5 820.5Q530.5 840.5 523.0 842.0Q515.5 843.5 513.5 843.5Q504.5 843.5 495.5 836.5Q483.5 826.5 483.5 811.5Q483.5 809.5 484.5 799.5Q485.5 789.5 503.5 771.5Q512.5 760.5 526.5 741.0Q540.5 721.5 555.5 697.5Q576.5 667.5 579.5 659.0Q582.5 650.5 582.5 647.5Q582.5 643.5 578.5 643.5Q573.5 643.5 556.5 657.0Q539.5 670.5 513.5 694.5Q477.5 730.5 466.0 738.0Q454.5 745.5 444.5 745.5Q439.5 745.5 434.5 744.5Q420.5 744.5 414.0 740.0Q407.5 735.5 404.5 726.5Q401.5 721.5 401.5 716.5Q401.5 709.5 406.5 702.5ZM486.5 384.5Q488.5 375.5 490.5 336.0Q492.5 296.5 494.5 244.5Q495.5 175.5 499.5 145.0Q503.5 114.5 508.5 107.5Q508.5 96.5 531.5 94.5Q554.5 92.5 601.5 92.5Q638.5 92.5 695.5 93.5Q739.5 91.5 773.5 91.5Q862.5 91.5 882.0 103.0Q901.5 114.5 901.5 165.5Q901.5 183.5 899.5 204.5Q899.5 274.5 894.0 334.0Q888.5 393.5 879.5 409.5Q879.5 418.5 856.5 419.0Q833.5 419.5 812.5 419.5Q769.5 419.5 688.5 418.5Q544.5 418.5 514.5 414.0Q484.5 409.5 484.5 393.5Q484.5 389.5 486.5 384.5ZM76.5 609.5Q76.5 602.5 85.5 578.0Q94.5 553.5 108.5 521.5Q143.5 442.5 165.0 385.0Q186.5 327.5 186.5 316.5Q186.5 310.5 178.5 308.0Q170.5 305.5 146.5 305.5Q136.5 306.5 129.5 306.5Q115.5 306.5 107.0 303.5Q98.5 300.5 90.5 291.5Q81.5 282.5 80.5 278.0Q79.5 273.5 79.5 271.5Q79.5 264.5 83.5 255.5L90.5 235.5L152.5 233.5Q195.5 231.5 206.0 229.0Q216.5 226.5 216.5 219.5Q216.5 211.5 218.5 192.0Q220.5 172.5 222.5 148.5Q224.5 116.5 229.0 101.0Q233.5 85.5 240.5 78.5Q251.5 67.5 263.5 67.5Q264.5 67.5 272.0 68.5Q279.5 69.5 290.5 85.5Q297.5 94.5 298.0 104.0Q298.5 113.5 298.5 118.5Q298.5 134.5 296.5 159.5Q296.5 184.5 295.5 202.5Q294.5 220.5 294.5 222.5Q296.5 226.5 311.5 227.5Q326.5 228.5 346.5 228.5Q391.5 228.5 408.5 237.0Q425.5 245.5 425.5 261.5Q425.5 263.5 425.5 265.5Q425.5 267.5 425.5 270.5Q425.5 286.5 412.0 295.0Q398.5 303.5 360.5 305.5L317.5 309.5L359.5 370.5Q395.5 422.5 397.5 434.0Q399.5 445.5 399.5 448.5Q399.5 464.5 378.5 471.5Q368.5 476.5 360.5 476.5Q353.5 476.5 343.5 471.0Q333.5 465.5 314.5 435.5L294.5 400.5L290.5 667.5Q288.5 805.5 286.0 871.5Q283.5 937.5 279.5 940.5Q276.5 944.5 271.0 946.0Q265.5 947.5 261.5 947.5Q258.5 947.5 254.5 946.5Q252.5 946.5 251.5 946.5Q229.5 946.5 224.0 905.0Q218.5 863.5 218.5 685.5V458.5L188.5 526.5Q153.5 600.5 140.0 621.5Q126.5 642.5 112.5 642.5Q110.5 642.5 109.5 642.5Q95.5 642.5 86.0 634.0Q76.5 625.5 76.5 609.5ZM571.5 348.5 814.5 352.5 819.5 336.5Q819.5 328.5 820.0 323.0Q820.5 317.5 820.5 315.5Q820.5 310.5 819.5 307.5Q819.5 306.5 819.5 305.5Q819.5 298.5 800.5 297.0Q781.5 295.5 761.5 295.5Q721.5 295.5 643.5 298.5L564.5 300.5ZM821.5 222.5 818.5 174.5 697.5 172.5 576.5 168.5 571.5 222.5Z" fill="black"></path></svg>